<svg width="24" height="24" viewBox="0 0 24 24" fill="none" xmlns="http://www.w3.org/2000/svg">
<path d="M6.33333 5C5.99233 5 5.65062 5.13029 5.39062 5.39063C4.86996 5.91129 4.86996 6.75538 5.39062 7.27604L10.1146 12L5.39062 16.724C4.86996 17.2446 4.86996 18.0887 5.39062 18.6094C5.65062 18.8694 5.99233 19 6.33333 19C6.67433 19 7.01604 18.8697 7.27604 18.6094L12 13.8854L16.724 18.6094C17.244 19.13 18.089 19.13 18.6094 18.6094C19.1304 18.0884 19.1304 17.245 18.6094 16.724L13.8854 12L18.6094 7.27604C19.13 6.75538 19.13 5.91129 18.6094 5.39063C18.0894 4.87029 17.244 4.86996 16.724 5.39063L12 10.1146L7.27604 5.39063C7.01604 5.13063 6.67433 5 6.33333 5Z" fill="#CEBEA4"/>
</svg>
