<svg width="40" height="28" viewBox="0 0 40 28" fill="none" xmlns="http://www.w3.org/2000/svg">
<path d="M22.7267 6.57176C23.4218 5.87507 23.8516 4.91371 23.8516 3.85178C23.8516 1.7245 22.1272 1.0431e-05 20 1.0431e-05C18.6552 1.0431e-05 17.4728 0.690235 16.7839 1.73473C16.6011 1.91817 1.26819 20.8161 1.12501 21.0332C0.429958 21.7299 0 22.6913 0 23.7532C0 25.8804 1.72449 27.6049 3.85169 27.6049C5.19646 27.6049 6.37881 26.9147 7.06773 25.8703C7.25067 25.6868 22.5835 6.7889 22.7267 6.57176Z" fill="#FF5631"/>
<path d="M31.5989 15.5387C32.2956 14.8417 32.7266 13.879 32.7266 12.8156C32.7266 10.6884 31.0022 8.96389 28.875 8.96389C27.5295 8.96389 26.3468 9.65476 25.658 10.7001C25.4734 10.8847 17.4203 20.8113 17.2761 21.0301C16.5793 21.7271 16.1483 22.6898 16.1483 23.7532C16.1483 25.8804 17.8728 27.6049 20 27.6049C21.3454 27.6049 22.5281 26.914 23.2169 25.8687C23.4015 25.6841 31.4547 15.7575 31.5989 15.5387Z" fill="#FF5631"/>
<path d="M40 3.85179C40 5.97899 38.2756 7.7034 36.1483 7.7034C34.0211 7.7034 32.2967 5.97899 32.2967 3.85179C32.2967 1.72451 34.0211 0.000108458 36.1483 0.000108458C38.2756 0.000108458 40 1.72451 40 3.85179Z" fill="#FF5631"/>
<path d="M7.70338 3.85179C7.70338 5.97899 5.97889 7.7034 3.85169 7.7034C1.72449 7.7034 0 5.97899 0 3.85179C0 1.72451 1.72449 0.000108458 3.85169 0.000108458C5.97889 0.000108458 7.70338 1.72451 7.70338 3.85179Z" fill="#FF5631"/>
</svg>
