<svg width="24" height="24" viewBox="0 0 24 24" fill="none" xmlns="http://www.w3.org/2000/svg">
<path fill-rule="evenodd" clip-rule="evenodd" d="M6.912 3C6.27029 2.99988 5.64544 3.20552 5.12924 3.58674C4.61303 3.96795 4.23266 4.50465 4.044 5.118L1.633 12.956C1.54496 13.2417 1.50013 13.539 1.5 13.838V18C1.5 18.7956 1.81607 19.5587 2.37868 20.1213C2.94129 20.6839 3.70435 21 4.5 21H19.5C20.2956 21 21.0587 20.6839 21.6213 20.1213C22.1839 19.5587 22.5 18.7956 22.5 18V13.838C22.5 13.539 22.455 13.242 22.367 12.956L19.955 5.118C19.7664 4.50481 19.3862 3.96823 18.8702 3.58703C18.3542 3.20583 17.7295 3.00009 17.088 3H6.912ZM20.735 12.75L18.522 5.559C18.4277 5.25232 18.2375 4.98398 17.9794 4.79337C17.7213 4.60276 17.4089 4.49994 17.088 4.5H6.912C6.59114 4.49994 6.27872 4.60276 6.02062 4.79337C5.76251 4.98398 5.57233 5.25232 5.478 5.559L3.265 12.75H6.11C6.66722 12.7498 7.21348 12.9049 7.68754 13.1977C8.1616 13.4906 8.54474 13.9096 8.794 14.408L9.05 14.921C9.17463 15.1702 9.3662 15.3797 9.60323 15.5261C9.84026 15.6726 10.1134 15.7501 10.392 15.75H13.61C13.8887 15.75 14.1619 15.6723 14.399 15.5257C14.636 15.3791 14.8275 15.1694 14.952 14.92L15.208 14.408C15.4573 13.9096 15.8404 13.4906 16.3145 13.1977C16.7885 12.9049 17.3348 12.7498 17.892 12.75H20.735Z" fill="#CEBEA4"/>
</svg>
