<svg width="16" height="16" viewBox="0 0 16 16" fill="none" xmlns="http://www.w3.org/2000/svg">
<path fill-rule="evenodd" clip-rule="evenodd" d="M10.8534 7.64666C10.947 7.74041 10.9996 7.86749 10.9996 7.99999C10.9996 8.13249 10.947 8.25957 10.8534 8.35332L5.85335 13.3533C5.75857 13.4416 5.63321 13.4897 5.50367 13.4874C5.37414 13.4852 5.25055 13.4327 5.15894 13.3411C5.06733 13.2495 5.01486 13.1259 5.01257 12.9963C5.01029 12.8668 5.05837 12.7414 5.14669 12.6467L9.79335 7.99999L5.14669 3.35332C5.09756 3.30755 5.05816 3.25235 5.03083 3.19102C5.00351 3.12968 4.98881 3.06347 4.98763 2.99634C4.98644 2.9292 4.99879 2.86252 5.02394 2.80026C5.04909 2.738 5.08652 2.68144 5.13399 2.63396C5.18147 2.58648 5.23803 2.54906 5.30029 2.52391C5.36255 2.49876 5.42923 2.48641 5.49637 2.4876C5.5635 2.48878 5.62971 2.50347 5.69105 2.5308C5.75238 2.55813 5.80758 2.59753 5.85335 2.64666L10.8534 7.64666Z" fill="white"/>
</svg>
