<svg width="24" height="24" viewBox="0 0 24 24" fill="none" xmlns="http://www.w3.org/2000/svg">
<path d="M12 11.993C11.8011 11.993 11.6103 12.072 11.4697 12.2127C11.329 12.3533 11.25 12.5441 11.25 12.743V12.749C11.25 13.163 11.586 13.499 12 13.499H12.006C12.2049 13.499 12.3957 13.42 12.5363 13.2793C12.677 13.1387 12.756 12.9479 12.756 12.749V12.743C12.756 12.5441 12.677 12.3533 12.5363 12.2127C12.3957 12.072 12.2049 11.993 12.006 11.993H12ZM12 16.494C11.8011 16.494 11.6103 16.573 11.4697 16.7137C11.329 16.8543 11.25 17.0451 11.25 17.244V17.249C11.25 17.663 11.585 17.999 12 17.999H12.005C12.2039 17.999 12.3947 17.92 12.5353 17.7793C12.676 17.6387 12.755 17.4479 12.755 17.249V17.244C12.755 17.0451 12.676 16.8543 12.5353 16.7137C12.3947 16.573 12.2039 16.494 12.005 16.494H12ZM8.99899 17.244C8.99899 17.0451 9.078 16.8543 9.21866 16.7137C9.35931 16.573 9.55007 16.494 9.74899 16.494H9.75499C9.9539 16.494 10.1447 16.573 10.2853 16.7137C10.426 16.8543 10.505 17.0451 10.505 17.244V17.25C10.505 17.4489 10.426 17.6397 10.2853 17.7803C10.1447 17.921 9.9539 18 9.75499 18H9.74899C9.55007 18 9.35931 17.921 9.21866 17.7803C9.078 17.6397 8.99899 17.4489 8.99899 17.25V17.244ZM7.49899 16.494C7.30007 16.494 7.10931 16.573 6.96866 16.7137C6.828 16.8543 6.74899 17.0451 6.74899 17.244V17.249C6.74899 17.663 7.08499 17.999 7.49899 17.999H7.50399C7.7029 17.999 7.89366 17.92 8.03432 17.7793C8.17497 17.6387 8.25399 17.4479 8.25399 17.249V17.244C8.25399 17.0451 8.17497 16.8543 8.03432 16.7137C7.89366 16.573 7.7029 16.494 7.50399 16.494H7.49899ZM13.499 14.997C13.499 14.7981 13.578 14.6073 13.7187 14.4667C13.8593 14.326 14.0501 14.247 14.249 14.247H14.255C14.4539 14.247 14.6447 14.326 14.7853 14.4667C14.926 14.6073 15.005 14.7981 15.005 14.997V15.002C15.005 15.2009 14.926 15.3917 14.7853 15.5323C14.6447 15.673 14.4539 15.752 14.255 15.752H14.249C14.0501 15.752 13.8593 15.673 13.7187 15.5323C13.578 15.3917 13.499 15.2009 13.499 15.002V14.997ZM14.25 16.494C14.0511 16.494 13.8603 16.573 13.7197 16.7137C13.579 16.8543 13.5 17.0451 13.5 17.244V17.25C13.5 17.664 13.835 18 14.25 18H14.255C14.4539 18 14.6447 17.921 14.7853 17.7803C14.926 17.6397 15.005 17.4489 15.005 17.25V17.244C15.005 17.0451 14.926 16.8543 14.7853 16.7137C14.6447 16.573 14.4539 16.494 14.255 16.494H14.25ZM15.75 14.995C15.75 14.7961 15.829 14.6053 15.9697 14.4647C16.1103 14.324 16.3011 14.245 16.5 14.245H16.505C16.7039 14.245 16.8947 14.324 17.0353 14.4647C17.176 14.6053 17.255 14.7961 17.255 14.995V15.001C17.255 15.1999 17.176 15.3907 17.0353 15.5313C16.8947 15.672 16.7039 15.751 16.505 15.751H16.5C16.3011 15.751 16.1103 15.672 15.9697 15.5313C15.829 15.3907 15.75 15.1999 15.75 15.001V14.995ZM13.498 12.743C13.498 12.5441 13.577 12.3533 13.7177 12.2127C13.8583 12.072 14.0491 11.993 14.248 11.993H16.498C16.6969 11.993 16.8877 12.072 17.0283 12.2127C17.169 12.3533 17.248 12.5441 17.248 12.743C17.248 12.9419 17.169 13.1327 17.0283 13.2733C16.8877 13.414 16.6969 13.493 16.498 13.493H14.248C14.0491 13.493 13.8583 13.414 13.7177 13.2733C13.577 13.1327 13.498 12.9419 13.498 12.743ZM6.74799 14.993C6.74799 14.7941 6.827 14.6033 6.96766 14.4627C7.10831 14.322 7.29907 14.243 7.49799 14.243H11.998C12.1969 14.243 12.3877 14.322 12.5283 14.4627C12.669 14.6033 12.748 14.7941 12.748 14.993C12.748 15.1919 12.669 15.3827 12.5283 15.5233C12.3877 15.664 12.1969 15.743 11.998 15.743H7.49799C7.29907 15.743 7.10831 15.664 6.96766 15.5233C6.827 15.3827 6.74799 15.1919 6.74799 14.993Z" fill="white"/>
<path fill-rule="evenodd" clip-rule="evenodd" d="M18 2.99298C18 2.79407 17.921 2.6033 17.7803 2.46265C17.6397 2.322 17.4489 2.24298 17.25 2.24298C17.0511 2.24298 16.8603 2.322 16.7197 2.46265C16.579 2.6033 16.5 2.79407 16.5 2.99298V4.49298H7.49999V2.99398C7.49999 2.79507 7.42097 2.6043 7.28032 2.46365C7.13966 2.323 6.9489 2.24398 6.74999 2.24398C6.55107 2.24398 6.36031 2.323 6.21966 2.46365C6.079 2.6043 5.99999 2.79507 5.99999 2.99398V4.49098H5.24799C4.45234 4.49098 3.68927 4.80705 3.12667 5.36966C2.56406 5.93227 2.24799 6.69533 2.24799 7.49098V18.743C2.24799 19.5386 2.56406 20.3017 3.12667 20.8643C3.68927 21.4269 4.45234 21.743 5.24799 21.743H18.748C19.5436 21.743 20.3067 21.4269 20.8693 20.8643C21.4319 20.3017 21.748 19.5386 21.748 18.743V7.49198C21.748 6.69633 21.4319 5.93327 20.8693 5.37066C20.3067 4.80805 19.5436 4.49198 18.748 4.49198H18V2.99298ZM3.74799 18.743V11.243C3.74799 10.8452 3.90602 10.4636 4.18733 10.1823C4.46863 9.90102 4.85016 9.74298 5.24799 9.74298H18.748C19.1458 9.74298 19.5273 9.90102 19.8086 10.1823C20.09 10.4636 20.248 10.8452 20.248 11.243V18.743C20.248 19.1408 20.09 19.5223 19.8086 19.8036C19.5273 20.0849 19.1458 20.243 18.748 20.243H5.24799C4.85016 20.243 4.46863 20.0849 4.18733 19.8036C3.90602 19.5223 3.74799 19.1408 3.74799 18.743Z" fill="white"/>
</svg>
